<svg xmlns="http://www.w3.org/2000/svg" width="2481" height="2073"><title>Map-Marker-Small</title><title>Layer 1</title><g clip-rule="evenodd" fill-rule="evenodd"><path d="M730.94 1839.63c-38.766-190.302-107.116-348.666-189.903-495.44-61.407-108.873-132.544-209.364-198.364-314.94-21.972-35.243-40.934-72.476-62.047-109.053-42.216-73.137-76.444-157.935-74.27-267.932 2.126-107.473 33.21-193.684 78.03-264.172 73.72-115.935 197.202-210.99 362.885-235.97 135.467-20.423 262.476 14.083 352.544 66.75 73.6 43.037 130.596 100.526 173.92 168.28 45.22 70.715 76.36 154.26 78.97 263.23 1.338 55.83-7.804 107.533-20.683 150.42-13.033 43.408-33.995 79.694-52.645 118.453-36.406 75.66-82.05 144.982-127.855 214.346-136.437 206.606-264.496 417.31-320.58 706.027z" stroke-miterlimit="10" stroke-width="37" stroke="#000" fill="#E81E25"/><path d="M731.38 1934.407c131.603-120.864 211.313-235.977 269.137-350.49 42.892-84.942 70.542-169.166 106.953-254.06 12.156-28.34 28.508-56.57 42.52-85.3 28.017-57.45 72.656-118.134 169.03-178.097 94.16-58.588 193.954-93.756 291.58-114.697 160.564-34.442 344.276-37.3 502.592 15.593 129.444 43.246 204.674 113.47 233.778 178.863 23.783 53.437 21.428 108.184-1.045 163.102-23.455 57.32-69.568 116.065-161.105 177.39-46.898 31.418-98.9 56.334-146.412 74.87-48.088 18.76-96.6 30.39-145.328 44.32-95.12 27.187-192.42 47.152-289.89 67.075-290.324 59.34-577.252 124.32-871.81 261.43z" opacity=".09"/><circle r="183.333" cy="651.047" cx="729.546"/></g></svg>